<?xml version="1.0" standalone="no"?><!DOCTYPE svg PUBLIC "-//W3C//DTD SVG 1.1//EN"
        "http://www.w3.org/Graphics/SVG/1.1/DTD/svg11.dtd">
<svg t="1708073716137" class="icon" viewBox="0 0 1024 1024" version="1.1" xmlns="http://www.w3.org/2000/svg"
     p-id="2383" width="64" height="64">
    <path d="M512 280.901818c171.752727 0 328.145455 167.098182 387.956364 238.545455C839.68 591.127273 683.287273 757.992727 512 757.992727S183.389091 591.127273 123.578182 519.447273C183.389091 448 339.781818 280.901818 512 280.901818zM512 209.454545C298.356364 209.454545 117.76 412.858182 56.785455 490.123636a46.545455 46.545455 0 0 0 0 58.647273C117.76 626.036364 298.356364 829.44 512 829.44s393.309091-203.403636 454.283636-280.669091a46.545455 46.545455 0 0 0 0-58.647273C905.309091 412.858182 724.712727 209.454545 512 209.454545z m0 238.545455a71.68 71.68 0 1 1-69.818182 71.447273 69.818182 69.818182 0 0 1 69.818182-71.447273z m0-71.68A139.636364 139.636364 0 0 0 382.603636 465.454545a146.385455 146.385455 0 0 0 30.254546 155.927273 137.076364 137.076364 0 0 0 151.970909 30.254546A143.127273 143.127273 0 0 0 651.636364 519.447273a141.265455 141.265455 0 0 0-139.636364-143.127273z"
          p-id="2384"></path>
</svg>
