<svg width="31" height="31" viewBox="0 0 31 31" fill="none" xmlns="http://www.w3.org/2000/svg">
    <path d="M16.8775 15.1769L26.6716 5.43373C27.1347 4.97358 27.1366 4.22667 26.6764 3.76361C26.5672 3.65324 26.4373 3.56554 26.2941 3.50554C26.1508 3.44554 25.9972 3.41443 25.8419 3.41398C25.6866 3.41353 25.5328 3.44375 25.3892 3.50292C25.2457 3.56209 25.1152 3.64903 25.0054 3.75876L15.2094 13.5029L5.49763 3.76215C5.27437 3.54984 4.97701 3.4331 4.66893 3.43681C4.36085 3.44053 4.0664 3.5644 3.84832 3.78204C3.63024 3.99968 3.50577 4.29388 3.50143 4.60195C3.49709 4.91002 3.61322 5.20761 3.82509 5.43131L13.5334 15.1697L3.74468 24.9071C3.63454 25.0164 3.54704 25.1463 3.4872 25.2895C3.42736 25.4327 3.39634 25.5863 3.39594 25.7415C3.39553 25.8966 3.42574 26.0504 3.48484 26.1939C3.54393 26.3374 3.63075 26.4678 3.74032 26.5777C3.84954 26.688 3.97946 26.7756 4.12263 26.8356C4.2658 26.8955 4.4194 26.9266 4.57462 26.9271C4.72984 26.9275 4.88361 26.8973 5.02713 26.8382C5.17065 26.779 5.30107 26.6922 5.41093 26.5825L15.2026 16.8427L25.002 26.6721C25.1113 26.7823 25.2414 26.8697 25.3846 26.9294C25.5279 26.9892 25.6815 27.0201 25.8368 27.0203C25.992 27.0205 26.1457 26.9901 26.2891 26.9308C26.4326 26.8714 26.5629 26.7844 26.6726 26.6745C26.7825 26.565 26.8698 26.4349 26.9295 26.2916C26.9891 26.1483 27.02 25.9947 27.0202 25.8395C27.0204 25.6843 26.99 25.5306 26.9308 25.3871C26.8716 25.2437 26.7846 25.1133 26.675 25.0034L16.8775 15.1774V15.1769Z"
          fill="black" fill-opacity="0.4"/>
</svg>
