<svg width="10" height="7" viewBox="0 0 10 7" fill="none" xmlns="http://www.w3.org/2000/svg">
    <path d="M4.37571 0.966973L0.114552 5.49158C0.0783332 5.52637 0.0495165 5.56811 0.0298317 5.61431C0.0101469 5.6605 0 5.7102 0 5.76042C0 5.81064 0.0101469 5.86033 0.0298317 5.90653C0.0495165 5.95273 0.0783332 5.99447 0.114552 6.02925C0.188838 6.10073 0.287919 6.14065 0.391005 6.14065C0.494091 6.14065 0.593172 6.10073 0.667458 6.02925L4.67247 1.77744L8.67607 6.02925C8.75035 6.10073 8.84943 6.14065 8.95252 6.14065C9.05561 6.14065 9.15469 6.10073 9.22897 6.02925C9.26519 5.99447 9.29401 5.95273 9.31369 5.90653C9.33338 5.86033 9.34353 5.81064 9.34353 5.76042C9.34353 5.7102 9.33338 5.6605 9.31369 5.61431C9.29401 5.56811 9.26519 5.52637 9.22897 5.49158L4.96782 0.966973C4.88482 0.897465 4.78002 0.859375 4.67176 0.859375C4.56351 0.859375 4.4587 0.897465 4.37571 0.966973Z"
          fill="black"/>
</svg>
