<svg width="12" height="10" viewBox="0 0 12 10" fill="none" xmlns="http://www.w3.org/2000/svg">
    <path d="M6.18603 9.75C5.84516 9.75 5.51604 9.5821 5.28487 9.2912L4.64427 8.48099C4.37 8.13348 3.73919 7.82892 3.29645 7.82892H2.04658C1.29627 7.82892 0.687012 7.22174 0.687012 6.474V1.60491C0.687012 0.857172 1.29627 0.25 2.04658 0.25H10.3274C11.0778 0.25 11.687 0.857172 11.687 1.60491V6.47205C11.687 7.21979 11.0778 7.82696 10.3274 7.82696H9.07561C8.63287 7.82696 8.00206 8.13153 7.7278 8.47904L7.08719 9.28925C6.85602 9.5821 6.5269 9.75 6.18603 9.75ZM2.04658 0.956741C1.68808 0.956741 1.39618 1.24764 1.39618 1.60491V6.47205C1.39618 6.82933 1.68808 7.12022 2.04658 7.12022H3.29841C3.95861 7.12022 4.79511 7.52435 5.20455 8.04172L5.84516 8.85193C5.94115 8.97493 6.06457 9.04131 6.18799 9.04131C6.31337 9.04131 6.43483 8.97298 6.53082 8.85193L7.17143 8.04172C7.57891 7.52435 8.41738 7.12022 9.07757 7.12022H10.3294C10.6879 7.12022 10.9798 6.82933 10.9798 6.47205V1.60491C10.9798 1.24764 10.6879 0.956741 10.3294 0.956741H2.04658Z"
          fill="black"/>
</svg>
