<svg width="11" height="11" viewBox="0 0 11 11" fill="none" xmlns="http://www.w3.org/2000/svg">
    <path d="M5.49902 10.25C5.15815 10.25 4.82903 10.0821 4.59786 9.7912L3.95726 8.98099C3.68299 8.63348 3.05218 8.32892 2.60944 8.32892H1.35957C0.609261 8.32892 0 7.72174 0 6.974V2.10491C0 1.35717 0.609261 0.75 1.35957 0.75H9.64043C10.3907 0.75 11 1.35717 11 2.10491V6.97205C11 7.71979 10.3907 8.32696 9.64043 8.32696H8.3886C7.94586 8.32696 7.31505 8.63152 7.04078 8.97904L6.40018 9.78925C6.16901 10.0821 5.83989 10.25 5.49902 10.25Z"
          fill="black"/>
</svg>
