<svg width="13" height="15" viewBox="0 0 13 15" fill="none" xmlns="http://www.w3.org/2000/svg">
    <path id="Vector"
          d="M6.81901 2.9251e-05C6.93511 2.9251e-05 7.05121 0.0432292 7.14031 0.131429L12.8679 5.85902C12.9524 5.9434 12.9999 6.05789 13 6.1773C13.0001 6.29672 12.9527 6.41127 12.8684 6.49577C12.784 6.58027 12.6695 6.62779 12.5501 6.62787C12.4307 6.62795 12.3161 6.5806 12.2316 6.49622L7.26541 1.53003V14.55C7.26541 14.6694 7.218 14.7838 7.13361 14.8682C7.04922 14.9526 6.93476 15 6.81541 15C6.69607 15 6.58161 14.9526 6.49722 14.8682C6.41283 14.7838 6.36542 14.6694 6.36542 14.55V1.53633L1.40642 6.49532C1.32204 6.57982 1.20755 6.62734 1.08814 6.62742C0.968728 6.6275 0.854171 6.58015 0.769673 6.49577C0.685176 6.41139 0.637658 6.2969 0.637573 6.17749C0.637489 6.05807 0.684845 5.94352 0.769223 5.85902L6.49681 0.131429C6.53905 0.0891539 6.58931 0.0557511 6.64464 0.0331854C6.69998 0.0106196 6.75926 -0.000653422 6.81901 2.9251e-05Z"
          fill="black"/>
</svg>
