<svg width="14" height="12" viewBox="0 0 14 12" fill="none" xmlns="http://www.w3.org/2000/svg">
    <path d="M13.6818 12C13.5974 12 13.5165 11.9649 13.4568 11.9024C13.3972 11.8399 13.3636 11.7551 13.3636 11.6667C13.3636 7.07168 9.79524 3.33336 5.40912 3.33336H1.08634L3.08869 5.43096C3.14837 5.49348 3.18189 5.57827 3.18189 5.66669C3.18189 5.7551 3.14837 5.8399 3.08869 5.90242C3.02901 5.96493 2.94807 6.00006 2.86368 6.00006C2.77928 6.00006 2.69834 5.96493 2.63866 5.90242L0.0932186 3.23576C0.0636651 3.2048 0.0402216 3.16805 0.024227 3.12761C0.00823235 3.08716 0 3.04381 0 3.00003C0 2.95625 0.00823235 2.9129 0.024227 2.87245C0.0402216 2.832 0.0636651 2.79525 0.0932186 2.7643L2.63866 0.097642C2.66821 0.0666857 2.70329 0.0421298 2.7419 0.0253764C2.78051 0.00862293 2.82189 0 2.86368 0C2.90547 0 2.94685 0.00862293 2.98545 0.0253764C3.02406 0.0421298 3.05914 0.0666857 3.08869 0.097642C3.11824 0.128598 3.14168 0.165349 3.15767 0.205795C3.17366 0.246241 3.18189 0.289591 3.18189 0.33337C3.18189 0.377149 3.17366 0.420499 3.15767 0.460946C3.14168 0.501392 3.11824 0.538142 3.08869 0.569099L1.08634 2.6667H5.40912C6.53755 2.66574 7.65508 2.89787 8.69779 3.34983C9.7405 3.80178 10.6879 4.46467 11.4858 5.30059C12.2837 6.1365 12.9165 7.12903 13.3479 8.22139C13.7793 9.31375 14.0009 10.4845 14 11.6667C14 11.7551 13.9665 11.8399 13.9068 11.9024C13.8471 11.9649 13.7662 12 13.6818 12Z"
          fill="black"/>
</svg>
