<svg width="10" height="6" viewBox="0 0 10 6" fill="none" xmlns="http://www.w3.org/2000/svg">
    <path d="M5.31133 5.53303L9.57249 1.00842C9.60871 0.973634 9.63753 0.93189 9.65721 0.885694C9.6769 0.839496 9.68704 0.789797 9.68704 0.739581C9.68704 0.689365 9.6769 0.639667 9.65721 0.59347C9.63753 0.547272 9.60871 0.505529 9.57249 0.470746C9.4982 0.399273 9.39912 0.359349 9.29604 0.359349C9.19295 0.359349 9.09387 0.399273 9.01958 0.470746L5.01457 4.72256L1.01097 0.470746C0.936688 0.399273 0.837608 0.359349 0.734522 0.359349C0.631435 0.359349 0.532355 0.399273 0.458069 0.470746C0.42185 0.505529 0.393033 0.547272 0.373348 0.59347C0.353663 0.639667 0.343516 0.689365 0.343516 0.739581C0.343516 0.789797 0.353663 0.839496 0.373348 0.885694C0.393033 0.93189 0.42185 0.973634 0.458069 1.00842L4.71922 5.53303C4.80222 5.60253 4.90702 5.64062 5.01528 5.64062C5.12354 5.64062 5.22834 5.60253 5.31133 5.53303Z"
          fill="black"/>
</svg>
