<svg width="10" height="6" viewBox="0 0 10 6" fill="none" xmlns="http://www.w3.org/2000/svg">
    <path id="Vector"
          d="M4.37571 0.466973L0.114552 4.99158C0.0783332 5.02637 0.0495165 5.06811 0.0298317 5.11431C0.0101469 5.1605 0 5.2102 0 5.26042C0 5.31064 0.0101469 5.36033 0.0298317 5.40653C0.0495165 5.45273 0.0783332 5.49447 0.114552 5.52925C0.188838 5.60073 0.287919 5.64065 0.391005 5.64065C0.494091 5.64065 0.593172 5.60073 0.667458 5.52925L4.67247 1.27744L8.67607 5.52925C8.75035 5.60073 8.84943 5.64065 8.95252 5.64065C9.05561 5.64065 9.15469 5.60073 9.22897 5.52925C9.26519 5.49447 9.29401 5.45273 9.31369 5.40653C9.33338 5.36033 9.34353 5.31064 9.34353 5.26042C9.34353 5.2102 9.33338 5.1605 9.31369 5.11431C9.29401 5.06811 9.26519 5.02637 9.22897 4.99158L4.96782 0.466973C4.88482 0.397465 4.78002 0.359375 4.67176 0.359375C4.56351 0.359375 4.4587 0.397465 4.37571 0.466973Z"
          fill="black"/>
</svg>
