<svg width="21" height="20" viewBox="0 0 21 20" fill="none" xmlns="http://www.w3.org/2000/svg">
    <path d="M19.3889 8.85417H11.6146V1.11111C11.6146 0.496528 11.1181 0 10.5035 0C9.88889 0 9.39236 0.496528 9.39236 1.11111V8.85417H1.61111C0.996528 8.85417 0.5 9.35069 0.5 9.96528C0.5 10.5799 0.996528 11.0764 1.61111 11.0764H9.39236V18.8889C9.39236 19.5035 9.88889 20 10.5035 20C11.1181 20 11.6146 19.5035 11.6146 18.8889V11.0764H19.3889C20.0035 11.0764 20.5 10.5799 20.5 9.96528C20.5 9.35069 20.0035 8.85417 19.3889 8.85417Z"
          fill="black" fill-opacity="0.8"/>
</svg>
