<svg width="43" height="42" viewBox="0 0 43 42" fill="none" xmlns="http://www.w3.org/2000/svg">
    <path d="M37.2695 34.8956L28.2318 25.846C30.0348 23.6283 31.1198 20.8045 31.1198 17.7297C31.1198 10.6216 25.3382 4.83984 18.2299 4.83984C11.1217 4.83984 5.33984 10.6216 5.33984 17.7298C5.33984 24.8381 11.1217 30.6198 18.2298 30.6198C21.3045 30.6198 24.1284 29.5347 26.3461 27.7316L35.3839 36.7813C35.6443 37.0417 35.9847 37.1719 36.3267 37.1719C36.6687 37.1719 37.0091 37.0417 37.2695 36.7813C37.7904 36.2604 37.7904 35.4165 37.2695 34.8956ZM8.00672 17.7298C8.00672 12.0921 12.5923 7.50672 18.2299 7.50672C23.8675 7.50672 28.4529 12.0921 28.4529 17.7298C28.4529 23.3675 23.8675 27.9529 18.2298 27.9529C12.5923 27.9529 8.00672 23.3675 8.00672 17.7298Z"
          fill="black" fill-opacity="0.8"/>
</svg>
