<svg width="64" height="64" viewBox="0 0 64 64" fill="none" xmlns="http://www.w3.org/2000/svg">
    <g clip-path="url(#clip0_457_214)">
        <path d="M46.928 29.184H34.816V17.072C34.816 15.856 33.792 14.832 32.576 14.832C31.36 14.832 30.336 15.856 30.336 17.072V29.184H18.224C17.008 29.184 15.984 30.208 15.984 31.424C15.984 32.64 17.008 33.664 18.224 33.664H30.336V45.776C30.336 46.992 31.36 48.016 32.576 48.016C33.792 48.016 34.816 46.992 34.816 45.776V33.664H46.928C48.144 33.664 49.168 32.64 49.168 31.424C49.168 30.208 48.144 29.184 46.928 29.184Z"
              fill="black"/>
        <path d="M32 0C14.336 0 0 14.336 0 32C0 49.664 14.336 64 32 64C49.664 64 64 49.664 64 32C64 14.336 49.664 0 32 0ZM32 59.52C16.832 59.52 4.48 47.168 4.48 32C4.48 16.832 16.832 4.48 32 4.48C47.168 4.48 59.52 16.768 59.52 32C59.52 47.232 47.168 59.52 32 59.52Z"
              fill="black"/>
    </g>
    <defs>
        <clipPath id="clip0_457_214">
            <rect width="64" height="64" fill="white"/>
        </clipPath>
    </defs>
</svg>
